<svg xmlns="http://www.w3.org/2000/svg" viewBox="0 0 500 500" width="500" height="500" preserveAspectRatio="xMidYMid meet" style="width: 100%; height: 100%; transform: translate3d(0px, 0px, 0px);">
    <defs>
        <clipPath id="__lottie_element_3">
            <rect width="500" height="500" x="0" y="0"></rect>
        </clipPath>
    </defs>
    <g clip-path="url(#__lottie_element_3)">
        <g transform="matrix(1,0,0,1,142.98507690429688,250)" opacity="1" style="display: block;">
            <g opacity="1" transform="matrix(1,0,0,1,0,0)">
                <path stroke-linecap="round" stroke-linejoin="round" fill-opacity="0" stroke="rgb(0, 119, 182)" stroke-opacity="1" stroke-width="12.04" d="M33.0620002746582,-57.71900177001953 C33.0620002746582,-57.71900177001953 -33.0620002746582,0 -33.0620002746582,0 C-33.0620002746582,0 33.0620002746582,57.71900177001953 33.0620002746582,57.71900177001953"></path>
            </g>
        </g>
        <g transform="matrix(1,0,0,1,357.09637451171875,250)" opacity="1" style="display: block;">
            <g opacity="1" transform="matrix(1,0,0,1,0,0)">
                <path stroke-linecap="round" stroke-linejoin="round" fill-opacity="0" stroke="rgb(0, 119, 182)" stroke-opacity="1" stroke-width="12.04" d="M-33.0620002746582,-57.71900177001953 C-33.0620002746582,-57.71900177001953 33.0620002746582,0 33.0620002746582,0 C33.0620002746582,0 -33.0620002746582,57.71900177001953 -33.0620002746582,57.71900177001953"></path>
            </g>
        </g>
        <g transform="matrix(1,0,0,1,0,0)" opacity="1" style="display: block;">
            <g opacity="1" transform="matrix(1,0,0,1,199.1790008544922,251)">
                <path stroke-linecap="round" stroke-linejoin="round" fill-opacity="0" stroke="rgb(3, 4, 94)" stroke-opacity="1" stroke-width="17.5" d="M-0.10899999737739563,0 C-0.10899999737739563,0 0.10899999737739563,0 0.10899999737739563,0"></path>
            </g>
        </g>
        <g transform="matrix(1,0,0,1,0,0)" opacity="1" style="display: block;">
            <g opacity="1" transform="matrix(1,0,0,1,250,251)">
                <path stroke-linecap="round" stroke-linejoin="round" fill-opacity="0" stroke="rgb(3, 4, 94)" stroke-opacity="1" stroke-width="17.5" d="M-0.10899999737739563,0 C-0.10899999737739563,0 0.10899999737739563,0 0.10899999737739563,0"></path>
            </g>
        </g>
        <g transform="matrix(1,0,0,1,-0.0000152587890625,0)" opacity="1" style="display: block;">
            <g opacity="1" transform="matrix(1,0,0,1,300.8210144042969,251)">
                <path stroke-linecap="round" stroke-linejoin="round" fill-opacity="0" stroke="rgb(3, 4, 94)" stroke-opacity="1" stroke-width="17.5" d="M-0.10899999737739563,0 C-0.10899999737739563,0 0.10899999737739563,0 0.10899999737739563,0"></path>
            </g>
        </g>
        <g class="com" style="display: none;">
            <g><path></path></g>
            <g><path></path></g>
            <g><path></path></g>
            <g><path></path></g>
            <g><path></path></g>
            <g><path></path></g>
            <g><path></path></g>
            <g><path></path></g>
            <g><path></path></g>
            <g><path></path></g>
            <g><path></path></g>
            <g><path></path></g>
        </g>
    </g>
</svg>
