<?xml version="1.0" encoding="UTF-8"?>
<svg id="Capa_2" data-name="Capa 2" xmlns="http://www.w3.org/2000/svg" viewBox="0 0 19.57 19.57">
  <defs>
    <style>
      .cls-1 {
        fill: #fff;
        stroke-width: 0px;
      }
    </style>
  </defs>
  <g id="Capa_1-2" data-name="Capa 1">
    <g>
      <path class="cls-1" d="M9.77,19.57c-2.01-.06-4.03.07-6.04-.07C1.5,19.34.06,17.88.03,15.63-.02,12.46,0,9.3,0,6.13c0-.72,0-1.45.02-2.17C.09,1.71,1.47.21,3.71.06,5.07-.03,6.45,0,7.81.02c.55,0,.98.46.98.96,0,.55-.45.98-1.09.99-1.21.02-2.42,0-3.63.03-1.41.03-2.05.64-2.08,2.04-.07,3.85-.07,7.69,0,11.54.03,1.29.67,1.93,1.96,1.99,1.03.04,2.07.03,3.11.03,2.54,0,5.08,0,7.62,0,.47,0,.94,0,1.4-.09.78-.16,1.31-.72,1.42-1.51.16-1.23.06-2.46.09-3.69,0-.23-.02-.47.01-.7.08-.5.39-.8.91-.83.5-.03.97.3.99.8.05,1.62.17,3.25-.09,4.85-.3,1.79-1.67,2.93-3.48,3.07-2.05.15-4.1.02-6.15.08Z"/>
      <path class="cls-1" d="M16.02,1.98c-1.02,0-2.03,0-3.05,0-.79,0-1.25-.37-1.25-1,0-.62.45-.97,1.26-.97,1.78,0,3.55,0,5.33,0,.86,0,1.2.34,1.2,1.21,0,1.8,0,3.59,0,5.39,0,.76-.37,1.22-.96,1.22-.6,0-.98-.47-.98-1.26,0-1.03,0-2.05,0-3.1-.28.07-.39.27-.53.41-2.1,2.09-4.2,4.19-6.3,6.29-.12.12-.24.26-.38.36-.41.31-.93.29-1.29-.05-.36-.35-.4-.91-.08-1.33.11-.14.24-.26.36-.38,2.08-2.08,4.17-4.17,6.26-6.25.15-.15.34-.24.52-.36-.05-.06-.09-.13-.14-.19Z"/>
    </g>
  </g>
</svg>